<?xml version="1.0" standalone="no"?>
<!DOCTYPE svg PUBLIC "-//W3C//DTD SVG 20010904//EN"
 "http://www.w3.org/TR/2001/REC-SVG-20010904/DTD/svg10.dtd">
<svg version="1.0" xmlns="http://www.w3.org/2000/svg"
 width="512.000000pt" height="512.000000pt" viewBox="0 0 512.000000 512.000000"
 preserveAspectRatio="xMidYMid meet">

<g transform="translate(0.000000,512.000000) scale(0.100000,-0.100000)"
fill="#000000" stroke="none">
<path d="M2552 5032 c-12 -42 -24 -102 -27 -132 l-5 -55 27 73 c15 40 30 69
34 65 5 -5 20 -37 34 -73 l26 -65 -6 50 c-7 61 -44 203 -55 210 -4 2 -16 -30
-28 -73z"/>
<path d="M2809 5018 c-80 -138 -100 -199 -38 -113 41 56 44 58 50 35 4 -14 8
-50 9 -80 2 -52 2 -53 11 -22 5 18 8 80 7 138 l-3 106 -36 -64z"/>
<path d="M2306 5019 c-7 -52 6 -195 18 -207 3 -3 6 21 7 54 1 99 9 105 54 40
21 -31 40 -54 43 -51 6 5 -72 162 -97 194 l-19 25 -6 -55z"/>
<path d="M2060 4958 c0 -26 46 -173 64 -203 9 -16 15 -23 13 -14 -3 9 -8 42
-12 75 l-8 59 24 -20 c13 -11 39 -33 56 -49 52 -48 47 -25 -10 42 -62 74 -127
130 -127 110z"/>
<path d="M3028 4910 c-35 -36 -74 -81 -88 -100 l-24 -35 49 39 c28 22 56 44
64 50 12 9 13 5 8 -26 -4 -21 -9 -55 -12 -75 l-6 -38 15 26 c19 34 68 199 62
213 -2 6 -32 -18 -68 -54z"/>
<path d="M1872 4750 c33 -59 110 -171 115 -167 1 2 -11 31 -28 66 -17 35 -28
65 -25 68 3 3 36 -9 73 -26 l68 -31 -35 31 c-33 28 -182 119 -195 119 -4 0 8
-27 27 -60z"/>
<path d="M2439 4796 c-443 -93 -704 -549 -553 -967 13 -37 24 -69 24 -72 0 -3
-28 -21 -62 -40 -96 -54 -184 -119 -249 -182 -59 -58 -69 -81 -47 -103 14 -14
54 -16 62 -3 4 5 30 -14 60 -43 30 -29 87 -75 127 -101 41 -27 120 -94 177
-149 l102 -100 0 -57 c0 -72 25 -267 46 -356 52 -225 150 -390 271 -455 127
-69 303 -55 414 33 39 31 129 142 129 159 0 4 -37 10 -83 13 -90 7 -169 28
-232 60 -62 31 -146 124 -187 207 -68 135 -81 230 -53 377 8 43 15 81 15 85 0
4 -24 -9 -52 -29 l-52 -35 -9 24 c-5 13 -15 35 -22 50 -13 26 -11 29 67 108
l80 82 -7 41 c-12 68 -11 81 7 85 43 9 60 -183 30 -343 -31 -170 -33 -191 -22
-263 14 -90 77 -217 140 -282 76 -78 150 -108 296 -121 65 -6 138 -12 161 -15
55 -7 99 -47 115 -108 8 -29 18 -46 28 -46 8 0 26 -3 39 -7 24 -6 24 -6 19 54
-13 141 -90 207 -272 234 -180 27 -243 63 -291 170 -45 101 -44 160 3 309 51
159 66 253 59 353 -6 77 -6 78 16 75 20 -3 22 -10 27 -79 4 -66 9 -80 35 -110
91 -105 227 -192 383 -245 l97 -34 -87 0 c-152 0 -299 44 -396 118 -24 18 -47
30 -52 27 -16 -10 -11 -42 8 -50 15 -6 13 -9 -10 -21 -22 -12 -33 -31 -54 -99
-31 -100 -28 -140 16 -233 43 -91 79 -110 268 -141 28 -4 52 -7 52 -5 0 1 7
36 16 76 8 40 21 120 28 178 l12 105 37 -1 c21 -1 40 -4 44 -8 8 -8 -13 -179
-36 -288 l-18 -87 38 -25 c73 -49 112 -122 125 -236 5 -42 3 -64 -6 -75 -14
-17 -57 -20 -79 -6 -9 6 -22 6 -34 0 -24 -14 -47 5 -47 40 -1 37 -36 111 -54
111 -8 0 -29 -26 -46 -57 -51 -89 -132 -168 -219 -211 -74 -37 -76 -37 -201
-37 -125 0 -127 0 -200 37 -41 20 -97 57 -123 82 -154 149 -244 427 -263 824
-4 72 -9 132 -12 132 -11 0 -102 -73 -143 -117 -159 -165 -251 -377 -304 -695
-5 -34 -12 -40 -68 -67 -70 -35 -185 -66 -277 -77 -54 -6 -63 -4 -84 15 -16
15 -54 28 -120 42 -119 24 -213 58 -338 120 -54 27 -104 49 -113 49 -37 0 -8
-44 93 -142 l108 -103 -18 -30 c-25 -39 -20 -124 9 -163 109 -147 564 -146
877 3 l73 34 6 83 c6 90 43 242 78 326 17 41 26 52 45 52 l23 0 -26 -62 c-73
-181 -102 -422 -69 -588 25 -129 83 -239 170 -325 84 -83 155 -127 268 -166
142 -49 249 -62 453 -56 217 6 302 24 453 98 226 110 343 295 358 564 7 127
-14 273 -59 403 -18 53 -37 105 -41 115 -7 14 -3 17 17 17 22 0 28 -9 52 -72
36 -99 64 -217 71 -311 l7 -78 71 -33 c315 -150 786 -152 876 -3 21 34 26 52
12 43 -5 -3 -49 -10 -99 -16 -218 -27 -418 41 -483 163 -21 39 -30 47 -79 62
-89 28 -150 62 -156 88 -2 12 -12 62 -20 111 -30 165 -91 327 -173 457 -23 36
-42 69 -42 73 0 13 38 5 52 -11 60 -70 152 -279 184 -413 9 -41 18 -77 20 -79
4 -5 248 159 364 245 120 90 294 258 336 324 l28 45 14 -45 c7 -25 16 -73 19
-107 5 -54 9 -63 26 -63 18 0 19 5 12 58 -4 31 -17 89 -29 127 -18 54 -22 85
-18 137 2 38 -1 81 -8 102 -23 71 -88 126 -148 126 -26 0 -32 6 -55 58 -32 72
-37 92 -46 157 l-7 54 28 -24 c46 -39 134 -45 214 -15 l29 11 -36 33 -36 33
19 26 c18 24 48 100 48 120 0 5 -20 8 -49 5 l-48 -5 -11 60 c-6 33 -15 64 -20
69 -4 4 -24 -3 -44 -17 -20 -14 -41 -25 -46 -25 -5 0 -23 20 -41 45 -18 25
-36 45 -42 45 -5 0 -21 -22 -37 -50 -15 -27 -31 -50 -35 -50 -4 0 -26 9 -48
21 -23 11 -44 18 -47 14 -3 -3 -8 -35 -10 -70 l-4 -65 -49 0 c-27 0 -49 -5
-49 -10 0 -18 47 -105 64 -119 14 -12 13 -17 -14 -51 -34 -43 -32 -45 49 -56
59 -8 115 8 153 43 l26 25 8 -48 c3 -27 18 -80 31 -119 14 -38 27 -77 29 -85
3 -9 -9 -23 -29 -37 -47 -29 -71 -83 -65 -145 l5 -50 -71 -70 c-67 -66 -337
-278 -355 -278 -4 0 -29 26 -54 58 -55 68 -116 121 -200 171 -95 57 -107 58
-52 1 l50 -50 -35 6 c-20 5 -62 31 -104 66 -38 32 -73 58 -78 58 -4 0 -8 -16
-8 -35 0 -33 -1 -34 -25 -23 l-26 12 73 74 c40 40 107 96 148 124 41 28 103
77 136 110 38 37 64 56 68 49 9 -15 49 -14 64 1 24 24 11 48 -67 120 -65 59
-156 123 -280 196 -12 7 -10 18 7 70 35 100 44 151 43 262 0 280 -155 527
-406 651 -44 21 -107 46 -140 55 -84 22 -245 27 -326 10z m356 -50 c236 -80
409 -265 471 -506 33 -125 19 -316 -32 -431 -15 -35 -18 -37 -58 -32 -22 3
-42 6 -43 7 -1 1 9 30 23 64 35 87 47 164 41 262 -22 357 -329 614 -689 578
-144 -14 -299 -93 -393 -201 -58 -66 -120 -186 -140 -268 -29 -124 -11 -311
40 -408 l16 -31 -36 -1 c-19 -1 -41 -2 -47 -3 -7 -1 -23 26 -35 59 -125 350
47 744 388 887 109 46 179 58 304 54 86 -3 127 -9 190 -30z m-35 -94 c240 -85
388 -264 421 -511 13 -95 -5 -220 -45 -306 -20 -45 -29 -55 -49 -55 -23 0 -25
4 -32 77 -12 134 -45 226 -117 331 -23 34 -27 46 -18 57 6 8 10 24 8 37 -3 20
-9 23 -44 23 -55 0 -81 23 -76 68 5 46 -18 66 -52 44 -19 -13 -29 -14 -54 -5
-25 10 -32 19 -37 50 -9 52 -49 98 -85 98 -36 0 -78 -48 -86 -99 -5 -30 -12
-40 -36 -49 -25 -9 -35 -8 -52 3 -26 19 -31 19 -51 -1 -11 -11 -14 -26 -10
-48 8 -42 -14 -61 -69 -61 -35 0 -41 -3 -44 -23 -2 -13 1 -29 7 -36 9 -10 2
-27 -25 -67 -71 -104 -114 -239 -114 -355 0 -42 -1 -44 -29 -44 -25 0 -31 6
-50 53 -71 175 -65 344 19 515 59 118 149 207 273 266 50 25 115 50 142 55 76
15 240 6 305 -17z m-19 -385 c30 -13 63 -32 74 -42 l20 -17 -20 7 c-134 45
-355 44 -469 -1 -39 -15 -5 16 45 41 71 37 113 45 210 41 67 -3 99 -9 140 -29z
m-110 -186 c33 -33 35 -50 14 -90 -24 -48 -81 -56 -120 -16 -40 39 -31 94 20
123 32 18 55 14 86 -17z m-227 -67 c33 -32 5 -94 -43 -94 -40 0 -68 69 -39 98
17 17 64 15 82 -4z m434 4 c30 -30 1 -98 -41 -98 -29 0 -57 29 -57 60 0 34 17
50 55 50 17 0 36 -5 43 -12z m1295 -70 c55 -73 74 -143 57 -206 -28 -107 -135
-96 -159 17 -5 26 -6 62 -2 81 10 44 58 140 71 140 5 0 20 -15 33 -32z m142
-63 c4 -31 6 -57 4 -58 -68 -37 -69 -37 -69 -12 0 13 -5 36 -11 52 -9 25 -7
30 18 50 42 34 51 29 58 -32z m-279 18 c19 -12 21 -20 16 -81 -4 -56 -1 -75
17 -110 23 -46 14 -55 -27 -26 -41 28 -62 86 -62 168 0 81 2 83 56 49z m-1213
-33 c132 -33 217 -92 252 -172 11 -24 20 -44 20 -46 1 -1 28 -9 60 -17 74 -20
171 -71 258 -136 46 -34 72 -48 78 -42 26 26 -177 159 -310 203 -83 27 -85 28
-51 35 81 15 176 -27 331 -147 l91 -70 -53 -55 c-30 -30 -90 -78 -134 -108
-44 -30 -116 -90 -160 -135 -44 -44 -87 -80 -95 -80 -16 0 -164 93 -174 109
-3 4 15 48 39 97 51 102 79 226 73 314 -7 95 -66 154 -200 202 -55 19 -83 22
-223 23 -139 0 -169 -3 -232 -23 -79 -24 -145 -69 -180 -121 -51 -76 -12 -306
75 -446 l25 -39 -34 -26 c-72 -55 -82 -66 -83 -98 -2 -55 -28 -41 -161 88 -49
48 -125 110 -167 138 -42 29 -100 75 -129 104 l-52 52 39 34 c56 49 172 130
224 157 53 27 135 40 170 27 22 -8 19 -10 -30 -22 -76 -18 -150 -52 -228 -105
-95 -64 -127 -94 -114 -107 7 -7 28 3 70 36 96 74 208 129 304 150 19 4 28 14
33 37 4 18 26 52 48 76 115 125 384 174 620 113z m1582 -89 c-20 -59 -42 -87
-80 -105 -41 -20 -59 -20 -79 -1 -12 12 -13 22 -4 48 21 63 68 94 145 96 l32
1 -14 -39z m-455 9 c10 -5 21 -21 24 -35 4 -14 23 -43 42 -65 l36 -40 -26 0
c-45 0 -84 28 -116 82 -21 38 -26 54 -17 60 16 10 35 10 57 -2z m-1320 -86 c0
-102 17 -110 40 -21 8 33 20 57 27 57 16 0 16 -5 1 -69 -6 -28 -20 -59 -30
-68 -24 -21 -73 -21 -97 1 -19 17 -48 122 -38 133 12 11 26 -9 32 -46 3 -22
13 -47 20 -58 13 -16 14 -8 15 70 0 70 3 87 15 87 12 0 15 -16 15 -86z m1648
-54 c17 0 42 5 56 11 21 10 29 8 51 -10 l27 -21 -27 -10 c-63 -24 -185 -2
-185 34 0 22 13 27 30 11 9 -8 31 -15 48 -15z m-253 -13 c17 1 46 5 65 9 33 7
34 6 20 -11 -31 -37 -133 -58 -185 -39 -27 11 22 57 49 47 12 -4 35 -7 51 -6z
m-1755 -546 c13 -25 13 -71 0 -71 -14 0 -30 35 -30 64 0 31 15 34 30 7z
m-1322 -897 c52 -13 104 -24 116 -24 32 0 66 -28 66 -55 0 -27 -42 -65 -72
-65 -49 0 -292 151 -352 218 -16 18 -6 16 65 -14 46 -19 126 -46 177 -60z
m1704 -566 c28 -24 29 -48 3 -74 -27 -27 -59 -26 -82 4 -18 22 -16 39 7 62 23
23 49 26 72 8z"/>
<path d="M2551 4047 c-22 -27 10 -64 45 -50 23 9 14 57 -12 61 -11 2 -26 -3
-33 -11z"/>
<path d="M2340 3981 c0 -27 19 -36 37 -18 18 18 9 37 -18 37 -12 0 -19 -7 -19
-19z"/>
<path d="M2774 3985 c-4 -9 -2 -21 4 -27 15 -15 44 -1 40 19 -4 23 -36 29 -44
8z"/>
<path d="M2029 3586 c-71 -29 -150 -77 -212 -129 -71 -59 -49 -57 30 2 68 52
213 131 239 131 8 0 14 5 14 10 0 14 -8 13 -71 -14z"/>
<path d="M3055 3600 c3 -5 11 -10 16 -10 27 0 162 -73 229 -123 80 -61 118
-77 60 -25 -59 51 -178 126 -236 147 -61 23 -78 26 -69 11z"/>
<path d="M3219 4759 c-46 -27 -95 -61 -109 -75 -24 -25 -24 -25 38 6 35 17 68
30 73 28 5 -2 -5 -32 -21 -68 l-30 -65 34 38 c34 38 112 175 104 182 -2 3 -42
-18 -89 -46z"/>
<path d="M1756 4511 c102 -99 147 -126 81 -49 -26 30 -47 59 -47 63 0 7 95 -1
129 -12 9 -2 3 4 -14 13 -35 20 -179 64 -209 64 -16 -1 -2 -19 60 -79z"/>
<path d="M3360 4566 c-41 -12 -88 -30 -105 -40 -16 -9 -22 -15 -12 -12 10 3
44 9 74 13 64 7 64 8 -1 -72 l-41 -49 46 32 c25 18 72 60 104 92 54 54 57 60
35 59 -14 0 -59 -10 -100 -23z"/>
<path d="M1179 4352 c-74 -93 -79 -104 -100 -228 -30 -182 -24 -168 -60 -147
-43 25 -113 102 -138 151 -26 51 -51 145 -51 190 0 34 -1 35 -36 29 -108 -18
-235 -115 -286 -218 -73 -151 -53 -324 52 -451 l31 -37 59 59 c78 81 161 120
270 127 64 5 80 3 80 -8 0 -7 -30 -104 -67 -215 l-67 -202 -49 -5 c-27 -2 -60
-13 -75 -24 -79 -59 -88 -130 -31 -258 l35 -80 -35 -107 c-25 -77 -40 -108
-53 -112 -14 -3 -17 -10 -13 -28 3 -13 0 -65 -8 -115 -18 -121 -5 -121 53 -3
24 49 50 90 57 90 16 0 17 27 2 32 -8 3 -5 25 11 73 12 39 26 73 29 78 4 4 29
-25 56 -64 91 -134 266 -287 381 -335 55 -23 102 -13 197 43 45 27 99 57 120
68 32 16 45 33 73 94 51 111 135 230 215 305 39 38 63 66 53 63 -11 -3 -53
-15 -94 -26 -106 -29 -258 -90 -388 -155 -61 -31 -116 -56 -121 -56 -21 0
-131 113 -180 185 -29 42 -75 121 -102 178 -27 56 -54 109 -60 118 -9 12 -6
34 16 98 26 80 27 82 47 65 16 -16 21 -16 28 -4 6 9 4 20 -6 31 -7 8 -14 30
-14 47 0 38 22 52 80 52 34 0 48 6 73 32 26 26 41 33 78 34 100 5 173 74 173
163 -1 90 -59 151 -142 151 -37 0 -50 -6 -78 -34 -29 -29 -34 -41 -34 -79 0
-35 6 -50 26 -71 35 -34 91 -36 122 -3 39 41 21 66 -18 27 -51 -51 -122 12
-94 85 8 21 56 45 90 45 16 0 38 -12 60 -34 28 -28 34 -41 34 -77 0 -84 -59
-139 -150 -139 -35 0 -40 3 -40 24 0 29 -40 73 -75 82 -36 9 -31 25 55 200
l70 142 0 106 c0 58 -3 106 -7 106 -5 0 -29 -26 -54 -58z m-379 -46 c0 -8 2
-20 5 -28 4 -9 -11 -19 -44 -31 -67 -23 -144 -95 -177 -165 -23 -47 -28 -71
-28 -138 -1 -74 2 -87 35 -152 36 -70 36 -71 17 -89 -19 -17 -20 -17 -39 7
-10 14 -28 44 -39 68 -96 202 -1 441 209 523 57 22 61 23 61 5z m344 -508 c23
-33 9 -36 -22 -5 -21 21 -23 27 -10 27 9 0 24 -10 32 -22z m-6 -58 l24 -12
-23 -24 c-17 -18 -33 -24 -67 -24 -37 0 -43 3 -38 16 4 9 11 37 18 61 l11 44
26 -24 c14 -14 37 -30 49 -37z"/>
<path d="M1580 4342 c0 -13 160 -102 210 -117 15 -4 4 8 -29 31 -60 43 -66 58
-24 62 15 1 44 5 63 9 l35 6 -45 8 c-61 10 -210 11 -210 1z"/>
<path d="M3365 4340 l-40 -6 35 -7 c19 -4 49 -8 65 -9 42 -4 36 -17 -23 -57
-28 -19 -50 -37 -48 -39 11 -10 225 104 226 121 0 8 -158 7 -215 -3z"/>
<path d="M1641 4105 c-52 -14 -96 -27 -98 -29 -9 -8 128 -46 186 -51 l56 -6
-55 22 c-30 12 -59 25 -63 29 -5 4 22 19 60 33 90 34 44 35 -86 2z"/>
<path d="M3405 4111 c109 -40 105 -35 34 -65 l-64 -27 56 6 c58 5 195 43 186
51 -9 9 -201 54 -231 54 -28 -1 -27 -2 19 -19z"/>
<path d="M1714 3886 c-49 -25 -102 -54 -119 -65 l-30 -21 100 0 c55 0 118 3
140 7 38 7 35 8 -40 18 l-80 10 55 39 c99 71 96 72 -26 12z"/>
<path d="M3375 3905 c69 -48 84 -60 85 -67 0 -4 -33 -10 -72 -14 -97 -10 -53
-21 91 -23 124 -1 123 3 -6 71 -109 57 -156 72 -98 33z"/>
<path d="M4052 2543 c-29 -26 -38 -63 -15 -63 10 0 33 -9 50 -20 44 -26 83
-11 83 32 0 58 -73 89 -118 51z"/>
<path d="M4205 2535 c-37 -36 -32 -59 16 -83 39 -19 43 -20 75 -4 41 19 46 57
11 90 -31 29 -72 28 -102 -3z"/>
<path d="M4361 2534 c-33 -42 -28 -69 16 -82 29 -9 40 -9 53 2 8 8 25 17 38
20 27 9 28 26 1 60 -15 19 -30 26 -54 26 -24 0 -39 -7 -54 -26z"/>
<path d="M4005 2440 c-78 -31 -57 -140 26 -140 39 0 69 32 69 73 0 51 -50 86
-95 67z"/>
<path d="M4473 2440 c-33 -13 -55 -53 -47 -84 13 -53 86 -74 124 -36 53 53 -8
147 -77 120z"/>
<path d="M4153 2420 c-70 -29 -45 -140 32 -140 38 0 75 37 75 75 0 49 -59 85
-107 65z"/>
<path d="M4296 2409 c-52 -41 -23 -129 43 -129 71 0 101 80 47 127 -33 28 -56
29 -90 2z"/>
<path d="M3876 2331 c-15 -16 -18 -32 -14 -81 8 -112 94 -194 234 -226 107
-23 295 -16 378 16 104 40 168 116 182 217 5 44 3 54 -15 72 -11 11 -25 21
-30 21 -16 0 -20 -28 -5 -34 53 -20 -43 -52 -205 -67 -161 -15 -373 -1 -478
32 -37 12 -43 28 -13 36 12 3 19 11 17 17 -6 19 -32 18 -51 -3z"/>
<path d="M1767 1494 c-15 -184 40 -743 104 -1051 25 -120 41 -141 123 -167 58
-18 66 -32 66 -111 0 -61 69 -133 149 -155 76 -21 148 -8 210 38 42 31 57 68
66 157 10 114 13 121 55 149 22 14 43 26 47 26 5 -1 23 -13 40 -28 31 -26 33
-34 44 -127 6 -55 15 -108 21 -120 52 -101 203 -135 313 -71 64 38 89 78 93
154 4 58 7 64 31 74 76 30 112 50 126 71 50 77 135 755 135 1073 -1 155 -1
158 -19 137 -15 -18 -19 -48 -24 -200 -10 -281 -42 -573 -94 -846 -22 -119
-29 -140 -51 -157 -14 -11 -26 -19 -28 -17 -2 1 3 27 11 57 23 88 63 350 85
555 11 105 22 207 24 228 3 30 1 37 -13 37 -14 0 -19 -25 -35 -182 -38 -381
-94 -691 -129 -710 -17 -9 -19 -7 -14 13 13 55 28 152 40 267 12 112 12 122
-3 122 -14 0 -19 -20 -29 -118 -16 -145 -39 -273 -54 -290 -8 -11 -38 -13
-127 -10 -99 3 -123 7 -172 30 -57 27 -128 75 -128 87 0 3 38 39 85 79 163
139 328 355 421 548 45 95 106 267 120 339 7 39 7 39 -16 24 -16 -11 -33 -47
-59 -129 -70 -216 -166 -390 -316 -569 -127 -151 -339 -323 -471 -383 -53 -24
-204 -36 -288 -24 l-44 7 -6 52 c-7 65 -32 367 -41 505 -6 82 -10 102 -23 102
-13 0 -14 -16 -8 -122 8 -155 35 -476 41 -505 6 -24 -1 -28 -22 -15 -20 13
-68 398 -93 742 -17 246 -20 270 -36 270 -18 0 -18 -9 1 -250 19 -248 42 -473
64 -622 13 -90 14 -115 4 -105 -41 41 -119 620 -130 968 -5 163 -9 200 -23
219 -17 22 -17 21 -23 -46z"/>
</g>
</svg>
